# xmcd CD database file
#
# Track frame offsets:
#	150
#	13360
#	25970
#	40455
#	51995
#	69375
#	83275
#	94330
#	106360
#	120505
#	140415
#	153925
#	163490
#	176805
#	189707
#	206670
#	222470
#	232430
#	245655
#	261685
#
# Disc length: 3671 seconds
#
# Revision: 0
# Processed by: cddbd v1.4PL0 Copyright (c) Steve Scherf et al.
# Submitted via: CDex 1.40Beta9
#
DISCID=390e5514
DTITLE=Chrystian e Ralf - Convite Para Ouvir
DYEAR=1994
DGENRE=Country
TTITLE0=Quebradas da Noite
TTITLE1=Casa da Esquina
TTITLE2=Amargurado
TTITLE3=Gemidos Abafados
TTITLE4=Anoche Estuve Llorando
TTITLE5=Camisa Manchada
TTITLE6=Cachorro de Madame
TTITLE7=Pranto de Saudade
TTITLE8=Noite de Tortura
TTITLE9=Piscina
TTITLE10=Flecha Certeira
TTITLE11=Louca Paixão
TTITLE12=Desencontro
TTITLE13=Dona de Casa
TTITLE14=Poeira
TTITLE15=Esta Noite Eu Queria Que o Mundo Acabasse
TTITLE16=Vestido Colado
TTITLE17=Medicina Legal
TTITLE18=A Desesperada
TTITLE19=Berrante de Madalena
EXTD=YEAR: 1994 ID3G: 2
EXTT0=
EXTT1=
EXTT2=
EXTT3=
EXTT4=
EXTT5=
EXTT6=
EXTT7=
EXTT8=
EXTT9=
EXTT10=
EXTT11=
EXTT12=
EXTT13=
EXTT14=
EXTT15=
EXTT16=
EXTT17=
EXTT18=
EXTT19=
PLAYORDER=
